M48
; DRILL file {KiCad (6.0.4-0)} date 2022 May 05, Thursday 16:00:32
; FORMAT={-:-/ absolute / inch / decimal}
; #@! TF.CreationDate,2022-05-05T16:00:32+02:00
; #@! TF.GenerationSoftware,Kicad,Pcbnew,(6.0.4-0)
; #@! TF.FileFunction,MixedPlating,1,2
FMAT,2
INCH
; #@! TA.AperFunction,Plated,PTH,ComponentDrill
T1C0.0374
; #@! TA.AperFunction,Plated,PTH,ComponentDrill
T2C0.0394
; #@! TA.AperFunction,Plated,PTH,ComponentDrill
T3C0.0866
%
G90
G05
T1
X3.3Y-2.5327
X3.3Y-2.6311
X3.3Y-2.7295
X3.3Y-3.0031
X3.3Y-3.1016
X3.3Y-3.2
X4.5781Y-3.325
X4.6766Y-3.325
X4.7Y-2.3
X4.7Y-2.3984
X4.7Y-2.4969
X4.7Y-2.8
X4.7Y-2.8984
X4.7Y-2.9969
X4.775Y-3.325
T2
X3.2673Y-2.0547
X3.3657Y-2.0547
X3.7004Y-2.0
X3.7004Y-2.1
X3.7004Y-2.2
X3.7004Y-2.3
X3.7004Y-2.4
X3.7004Y-2.5
X3.7004Y-2.6
X3.7004Y-2.7
X3.7004Y-2.8
X3.7004Y-2.9
X3.7004Y-3.0
X3.7004Y-3.1
X3.7004Y-3.2
X3.7004Y-3.3
X3.7004Y-3.4
X4.3004Y-2.0
X4.3004Y-2.1
X4.3004Y-2.2
X4.3004Y-2.3
X4.3004Y-2.4
X4.3004Y-2.5
X4.3004Y-2.6
X4.3004Y-2.7
X4.3004Y-2.8
X4.3004Y-2.9
X4.3004Y-3.0
X4.3004Y-3.1
X4.3004Y-3.2
X4.3004Y-3.3
X4.3004Y-3.4
T3
X3.125Y-1.8
X3.125Y-3.625
X4.9Y-1.8
X4.9Y-3.625
T0
M30
