%TF.GenerationSoftware,KiCad,Pcbnew,(6.0.4-0)*%
%TF.CreationDate,2022-04-12T17:33:19+02:00*%
%TF.ProjectId,Raptor_Gripper_Board,52617074-6f72-45f4-9772-69707065725f,rev?*%
%TF.SameCoordinates,Original*%
%TF.FileFunction,Copper,L1,Top*%
%TF.FilePolarity,Positive*%
%FSLAX46Y46*%
G04 Gerber Fmt 4.6, Leading zero omitted, Abs format (unit mm)*
G04 Created by KiCad (PCBNEW (6.0.4-0)) date 2022-04-12 17:33:19*
%MOMM*%
%LPD*%
G01*
G04 APERTURE LIST*
G04 Aperture macros list*
%AMRoundRect*
0 Rectangle with rounded corners*
0 $1 Rounding radius*
0 $2 $3 $4 $5 $6 $7 $8 $9 X,Y pos of 4 corners*
0 Add a 4 corners polygon primitive as box body*
4,1,4,$2,$3,$4,$5,$6,$7,$8,$9,$2,$3,0*
0 Add four circle primitives for the rounded corners*
1,1,$1+$1,$2,$3*
1,1,$1+$1,$4,$5*
1,1,$1+$1,$6,$7*
1,1,$1+$1,$8,$9*
0 Add four rect primitives between the rounded corners*
20,1,$1+$1,$2,$3,$4,$5,0*
20,1,$1+$1,$4,$5,$6,$7,0*
20,1,$1+$1,$6,$7,$8,$9,0*
20,1,$1+$1,$8,$9,$2,$3,0*%
G04 Aperture macros list end*
%TA.AperFunction,ConnectorPad*%
%ADD10C,3.800000*%
%TD*%
%TA.AperFunction,ComponentPad*%
%ADD11C,2.600000*%
%TD*%
%TA.AperFunction,SMDPad,CuDef*%
%ADD12RoundRect,0.250000X0.350000X0.450000X-0.350000X0.450000X-0.350000X-0.450000X0.350000X-0.450000X0*%
%TD*%
%TA.AperFunction,ComponentPad*%
%ADD13RoundRect,0.250000X0.725000X-0.600000X0.725000X0.600000X-0.725000X0.600000X-0.725000X-0.600000X0*%
%TD*%
%TA.AperFunction,ComponentPad*%
%ADD14O,1.950000X1.700000*%
%TD*%
%TA.AperFunction,ComponentPad*%
%ADD15RoundRect,0.250000X-0.725000X0.600000X-0.725000X-0.600000X0.725000X-0.600000X0.725000X0.600000X0*%
%TD*%
%TA.AperFunction,ComponentPad*%
%ADD16RoundRect,0.250000X-0.600000X-0.750000X0.600000X-0.750000X0.600000X0.750000X-0.600000X0.750000X0*%
%TD*%
%TA.AperFunction,ComponentPad*%
%ADD17O,1.700000X2.000000*%
%TD*%
%TA.AperFunction,ComponentPad*%
%ADD18O,1.600000X1.600000*%
%TD*%
%TA.AperFunction,ComponentPad*%
%ADD19R,1.600000X1.600000*%
%TD*%
%TA.AperFunction,Conductor*%
%ADD20C,0.250000*%
%TD*%
G04 APERTURE END LIST*
D10*
%TO.P,H3,1*%
%TO.N,N/C*%
X79375000Y-45720000D03*
D11*
X79375000Y-45720000D03*
%TD*%
%TO.P,H2,1*%
%TO.N,N/C*%
X124460000Y-45720000D03*
D10*
X124460000Y-45720000D03*
%TD*%
%TO.P,H1,1*%
%TO.N,N/C*%
X124460000Y-92075000D03*
D11*
X124460000Y-92075000D03*
%TD*%
D10*
%TO.P,H0,1*%
%TO.N,N/C*%
X79375000Y-92075000D03*
D11*
X79375000Y-92075000D03*
%TD*%
D12*
%TO.P,R4,1*%
%TO.N,Net-(J2-Pad2)*%
X106140000Y-76200000D03*
%TO.P,R4,2*%
%TO.N,Net-(J4-Pad3)*%
X104140000Y-76200000D03*
%TD*%
%TO.P,R3,2*%
%TO.N,Net-(J4-Pad3)*%
X104140000Y-71120000D03*
%TO.P,R3,1*%
%TO.N,Net-(J2-Pad3)*%
X106140000Y-71120000D03*
%TD*%
%TO.P,R2,2*%
%TO.N,Net-(J4-Pad3)*%
X104140000Y-66040000D03*
%TO.P,R2,1*%
%TO.N,Net-(J3-Pad2)*%
X106140000Y-66040000D03*
%TD*%
%TO.P,R1,1*%
%TO.N,Net-(J3-Pad3)*%
X106140000Y-60960000D03*
%TO.P,R1,2*%
%TO.N,Net-(J4-Pad3)*%
X104140000Y-60960000D03*
%TD*%
D13*
%TO.P,J5,1,Pin_1*%
%TO.N,Net-(J5-Pad1)*%
X83820000Y-81280000D03*
D14*
%TO.P,J5,2,Pin_2*%
%TO.N,Net-(J5-Pad2)*%
X83820000Y-78780000D03*
%TO.P,J5,3,Pin_3*%
%TO.N,Net-(J4-Pad3)*%
X83820000Y-76280000D03*
%TD*%
%TO.P,J4,3,Pin_3*%
%TO.N,Net-(J4-Pad3)*%
X83820000Y-64330000D03*
%TO.P,J4,2,Pin_2*%
%TO.N,Net-(J4-Pad2)*%
X83820000Y-66830000D03*
D13*
%TO.P,J4,1,Pin_1*%
%TO.N,Net-(J5-Pad1)*%
X83820000Y-69330000D03*
%TD*%
D14*
%TO.P,J3,3,Pin_3*%
%TO.N,Net-(J3-Pad3)*%
X119380000Y-63420000D03*
%TO.P,J3,2,Pin_2*%
%TO.N,Net-(J3-Pad2)*%
X119380000Y-60920000D03*
D15*
%TO.P,J3,1,Pin_1*%
%TO.N,Net-(J2-Pad1)*%
X119380000Y-58420000D03*
%TD*%
D14*
%TO.P,J2,3,Pin_3*%
%TO.N,Net-(J2-Pad3)*%
X119380000Y-76120000D03*
%TO.P,J2,2,Pin_2*%
%TO.N,Net-(J2-Pad2)*%
X119380000Y-73620000D03*
D15*
%TO.P,J2,1,Pin_1*%
%TO.N,Net-(J2-Pad1)*%
X119380000Y-71120000D03*
%TD*%
D16*
%TO.P,J1,1,Pin_1*%
%TO.N,Net-(J5-Pad1)*%
X82990000Y-52190000D03*
D17*
%TO.P,J1,2,Pin_2*%
%TO.N,Net-(J4-Pad3)*%
X85490000Y-52190000D03*
%TD*%
D18*
%TO.P,A0,30,VIN*%
%TO.N,unconnected-(A0-Pad30)*%
X109220000Y-50800000D03*
%TO.P,A0,29,GND*%
%TO.N,Net-(J4-Pad3)*%
X109220000Y-53340000D03*
%TO.P,A0,28,~{RESET}*%
%TO.N,unconnected-(A0-Pad28)*%
X109220000Y-55880000D03*
%TO.P,A0,27,+5V*%
%TO.N,Net-(J2-Pad1)*%
X109220000Y-58420000D03*
%TO.P,A0,26,A7*%
%TO.N,unconnected-(A0-Pad26)*%
X109220000Y-60960000D03*
%TO.P,A0,25,A6*%
%TO.N,unconnected-(A0-Pad25)*%
X109220000Y-63500000D03*
%TO.P,A0,24,SCL/A5*%
%TO.N,Net-(J3-Pad3)*%
X109220000Y-66040000D03*
%TO.P,A0,23,SDA/A4*%
%TO.N,Net-(J3-Pad2)*%
X109220000Y-68580000D03*
%TO.P,A0,22,A3*%
%TO.N,Net-(J2-Pad3)*%
X109220000Y-71120000D03*
%TO.P,A0,21,A2*%
%TO.N,Net-(J2-Pad2)*%
X109220000Y-73660000D03*
%TO.P,A0,20,A1*%
%TO.N,unconnected-(A0-Pad20)*%
X109220000Y-76200000D03*
%TO.P,A0,19,A0*%
%TO.N,unconnected-(A0-Pad19)*%
X109220000Y-78740000D03*
%TO.P,A0,18,AREF*%
%TO.N,unconnected-(A0-Pad18)*%
X109220000Y-81280000D03*
%TO.P,A0,17,3V3*%
%TO.N,unconnected-(A0-Pad17)*%
X109220000Y-83820000D03*
%TO.P,A0,16,SCK*%
%TO.N,unconnected-(A0-Pad16)*%
X109220000Y-86360000D03*
%TO.P,A0,15,MISO*%
%TO.N,unconnected-(A0-Pad15)*%
X93980000Y-86360000D03*
%TO.P,A0,14,MOSI*%
%TO.N,unconnected-(A0-Pad14)*%
X93980000Y-83820000D03*
%TO.P,A0,13,D10*%
%TO.N,unconnected-(A0-Pad13)*%
X93980000Y-81280000D03*
%TO.P,A0,12,D9*%
%TO.N,Net-(J5-Pad2)*%
X93980000Y-78740000D03*
%TO.P,A0,11,D8*%
%TO.N,unconnected-(A0-Pad11)*%
X93980000Y-76200000D03*
%TO.P,A0,10,D7*%
%TO.N,unconnected-(A0-Pad10)*%
X93980000Y-73660000D03*
%TO.P,A0,9,D6*%
%TO.N,Net-(J4-Pad2)*%
X93980000Y-71120000D03*
%TO.P,A0,8,D5*%
%TO.N,unconnected-(A0-Pad8)*%
X93980000Y-68580000D03*
%TO.P,A0,7,D4*%
%TO.N,unconnected-(A0-Pad7)*%
X93980000Y-66040000D03*
%TO.P,A0,6,D3*%
%TO.N,unconnected-(A0-Pad6)*%
X93980000Y-63500000D03*
%TO.P,A0,5,D2*%
%TO.N,unconnected-(A0-Pad5)*%
X93980000Y-60960000D03*
%TO.P,A0,4,GND*%
%TO.N,Net-(J4-Pad3)*%
X93980000Y-58420000D03*
%TO.P,A0,3,~{RESET}*%
%TO.N,unconnected-(A0-Pad3)*%
X93980000Y-55880000D03*
%TO.P,A0,2,RX1*%
%TO.N,unconnected-(A0-Pad2)*%
X93980000Y-53340000D03*
D19*
%TO.P,A0,1,TX1*%
%TO.N,unconnected-(A0-Pad1)*%
X93980000Y-50800000D03*
%TD*%
D20*
%TO.N,Net-(J2-Pad1)*%
X119380000Y-58420000D02*
X121129040Y-60169040D01*
X121129040Y-69370960D02*
X119380000Y-71120000D01*
X121129040Y-60169040D02*
X121129040Y-69370960D01*
%TO.N,Net-(J2-Pad3)*%
X119380000Y-76120000D02*
X120679520Y-74820480D01*
X120679520Y-73133498D02*
X119840542Y-72294520D01*
X120679520Y-74820480D02*
X120679520Y-73133498D01*
X119840542Y-72294520D02*
X110394520Y-72294520D01*
X110394520Y-72294520D02*
X109220000Y-71120000D01*
%TO.N,Net-(J2-Pad2)*%
X119380000Y-73620000D02*
X109260000Y-73620000D01*
X109260000Y-73620000D02*
X109220000Y-73660000D01*
%TO.N,Net-(J3-Pad3)*%
X119380000Y-63420000D02*
X120679520Y-62120480D01*
X120679520Y-62120480D02*
X120679520Y-60433498D01*
X120679520Y-60433498D02*
X119840542Y-59594520D01*
X119840542Y-59594520D02*
X115665480Y-59594520D01*
X115665480Y-59594520D02*
X109220000Y-66040000D01*
%TO.N,Net-(J3-Pad2)*%
X119380000Y-60920000D02*
X116880000Y-60920000D01*
X116880000Y-60920000D02*
X109220000Y-68580000D01*
%TO.N,Net-(J2-Pad1)*%
X109220000Y-58420000D02*
X119380000Y-58420000D01*
%TO.N,Net-(J4-Pad3)*%
X104140000Y-60960000D02*
X101600000Y-58420000D01*
X101600000Y-58420000D02*
X93980000Y-58420000D01*
X83820000Y-64330000D02*
X90679700Y-64330000D01*
X90679700Y-64330000D02*
X93514211Y-67164511D01*
X93514211Y-67164511D02*
X94154811Y-67164511D01*
X94154811Y-67164511D02*
X95104511Y-68114211D01*
X95104511Y-68114211D02*
X95104511Y-76665789D01*
X95104511Y-76665789D02*
X94164820Y-77605480D01*
X94164820Y-77605480D02*
X85145480Y-77605480D01*
X85145480Y-77605480D02*
X83820000Y-76280000D01*
%TO.N,Net-(J5-Pad1)*%
X83820000Y-69330000D02*
X82520480Y-70629520D01*
X82520480Y-79980480D02*
X83820000Y-81280000D01*
X82520480Y-70629520D02*
X82520480Y-79980480D01*
%TO.N,Net-(J4-Pad3)*%
X83820000Y-64330000D02*
X83820000Y-53860000D01*
X83820000Y-53860000D02*
X85490000Y-52190000D01*
%TO.N,Net-(J4-Pad2)*%
X83820000Y-66830000D02*
X89690000Y-66830000D01*
X89690000Y-66830000D02*
X93980000Y-71120000D01*
%TO.N,Net-(J5-Pad2)*%
X83820000Y-78780000D02*
X93940000Y-78780000D01*
X93940000Y-78780000D02*
X93980000Y-78740000D01*
%TO.N,Net-(J5-Pad1)*%
X82990000Y-52190000D02*
X82520480Y-52659520D01*
X82520480Y-52659520D02*
X82520480Y-68030480D01*
X82520480Y-68030480D02*
X83820000Y-69330000D01*
%TO.N,Net-(J4-Pad3)*%
X85490000Y-52190000D02*
X87750000Y-52190000D01*
X87750000Y-52190000D02*
X93980000Y-58420000D01*
X104140000Y-60960000D02*
X104140000Y-58420000D01*
X104140000Y-58420000D02*
X109220000Y-53340000D01*
X104140000Y-60960000D02*
X104140000Y-66040000D01*
X104140000Y-71120000D02*
X104140000Y-66040000D01*
X104140000Y-76200000D02*
X104140000Y-71120000D01*
%TO.N,Net-(J2-Pad2)*%
X106140000Y-76200000D02*
X106680000Y-76200000D01*
X106680000Y-76200000D02*
X109220000Y-73660000D01*
%TO.N,Net-(J2-Pad3)*%
X106140000Y-71120000D02*
X109220000Y-71120000D01*
%TO.N,Net-(J3-Pad2)*%
X106140000Y-66040000D02*
X106680000Y-66040000D01*
X106680000Y-66040000D02*
X109220000Y-68580000D01*
%TO.N,Net-(J3-Pad3)*%
X106140000Y-60960000D02*
X106140000Y-62960000D01*
X106140000Y-62960000D02*
X109220000Y-66040000D01*
%TD*%
M02*
