%TF.GenerationSoftware,KiCad,Pcbnew,(6.0.4-0)*%
%TF.CreationDate,2022-05-05T15:57:16+02:00*%
%TF.ProjectId,Raptor_Gripper_Board,52617074-6f72-45f4-9772-69707065725f,rev?*%
%TF.SameCoordinates,Original*%
%TF.FileFunction,Legend,Top*%
%TF.FilePolarity,Positive*%
%FSLAX46Y46*%
G04 Gerber Fmt 4.6, Leading zero omitted, Abs format (unit mm)*
G04 Created by KiCad (PCBNEW (6.0.4-0)) date 2022-05-05 15:57:16*
%MOMM*%
%LPD*%
G01*
G04 APERTURE LIST*
%ADD10C,0.150000*%
%ADD11C,0.120000*%
G04 APERTURE END LIST*
D10*
X113506904Y-88669761D02*
X113649761Y-88717380D01*
X113887857Y-88717380D01*
X113983095Y-88669761D01*
X114030714Y-88622142D01*
X114078333Y-88526904D01*
X114078333Y-88431666D01*
X114030714Y-88336428D01*
X113983095Y-88288809D01*
X113887857Y-88241190D01*
X113697380Y-88193571D01*
X113602142Y-88145952D01*
X113554523Y-88098333D01*
X113506904Y-88003095D01*
X113506904Y-87907857D01*
X113554523Y-87812619D01*
X113602142Y-87765000D01*
X113697380Y-87717380D01*
X113935476Y-87717380D01*
X114078333Y-87765000D01*
X114506904Y-88193571D02*
X114840238Y-88193571D01*
X114983095Y-88717380D02*
X114506904Y-88717380D01*
X114506904Y-87717380D01*
X114983095Y-87717380D01*
X115983095Y-88717380D02*
X115649761Y-88241190D01*
X115411666Y-88717380D02*
X115411666Y-87717380D01*
X115792619Y-87717380D01*
X115887857Y-87765000D01*
X115935476Y-87812619D01*
X115983095Y-87907857D01*
X115983095Y-88050714D01*
X115935476Y-88145952D01*
X115887857Y-88193571D01*
X115792619Y-88241190D01*
X115411666Y-88241190D01*
X116268809Y-87717380D02*
X116602142Y-88717380D01*
X116935476Y-87717380D01*
X117459285Y-87717380D02*
X117649761Y-87717380D01*
X117745000Y-87765000D01*
X117840238Y-87860238D01*
X117887857Y-88050714D01*
X117887857Y-88384047D01*
X117840238Y-88574523D01*
X117745000Y-88669761D01*
X117649761Y-88717380D01*
X117459285Y-88717380D01*
X117364047Y-88669761D01*
X117268809Y-88574523D01*
X117221190Y-88384047D01*
X117221190Y-88050714D01*
X117268809Y-87860238D01*
X117364047Y-87765000D01*
X117459285Y-87717380D01*
X119078333Y-88717380D02*
X119078333Y-87717380D01*
X119411666Y-88431666D01*
X119745000Y-87717380D01*
X119745000Y-88717380D01*
X120221190Y-88717380D02*
X120221190Y-87717380D01*
X120697380Y-88717380D02*
X120697380Y-87717380D01*
X120935476Y-87717380D01*
X121078333Y-87765000D01*
X121173571Y-87860238D01*
X121221190Y-87955476D01*
X121268809Y-88145952D01*
X121268809Y-88288809D01*
X121221190Y-88479285D01*
X121173571Y-88574523D01*
X121078333Y-88669761D01*
X120935476Y-88717380D01*
X120697380Y-88717380D01*
X121697380Y-88717380D02*
X121697380Y-87717380D01*
X121935476Y-87717380D01*
X122078333Y-87765000D01*
X122173571Y-87860238D01*
X122221190Y-87955476D01*
X122268809Y-88145952D01*
X122268809Y-88288809D01*
X122221190Y-88479285D01*
X122173571Y-88574523D01*
X122078333Y-88669761D01*
X121935476Y-88717380D01*
X121697380Y-88717380D01*
X123173571Y-88717380D02*
X122697380Y-88717380D01*
X122697380Y-87717380D01*
X123506904Y-88193571D02*
X123840238Y-88193571D01*
X123983095Y-88717380D02*
X123506904Y-88717380D01*
X123506904Y-87717380D01*
X123983095Y-87717380D01*
X125499761Y-78469523D02*
X125547380Y-78326666D01*
X125547380Y-78088571D01*
X125499761Y-77993333D01*
X125452142Y-77945714D01*
X125356904Y-77898095D01*
X125261666Y-77898095D01*
X125166428Y-77945714D01*
X125118809Y-77993333D01*
X125071190Y-78088571D01*
X125023571Y-78279047D01*
X124975952Y-78374285D01*
X124928333Y-78421904D01*
X124833095Y-78469523D01*
X124737857Y-78469523D01*
X124642619Y-78421904D01*
X124595000Y-78374285D01*
X124547380Y-78279047D01*
X124547380Y-78040952D01*
X124595000Y-77898095D01*
X125023571Y-77469523D02*
X125023571Y-77136190D01*
X125547380Y-76993333D02*
X125547380Y-77469523D01*
X124547380Y-77469523D01*
X124547380Y-76993333D01*
X125547380Y-76564761D02*
X124547380Y-76564761D01*
X125547380Y-75993333D01*
X124547380Y-75993333D01*
X125499761Y-75564761D02*
X125547380Y-75421904D01*
X125547380Y-75183809D01*
X125499761Y-75088571D01*
X125452142Y-75040952D01*
X125356904Y-74993333D01*
X125261666Y-74993333D01*
X125166428Y-75040952D01*
X125118809Y-75088571D01*
X125071190Y-75183809D01*
X125023571Y-75374285D01*
X124975952Y-75469523D01*
X124928333Y-75517142D01*
X124833095Y-75564761D01*
X124737857Y-75564761D01*
X124642619Y-75517142D01*
X124595000Y-75469523D01*
X124547380Y-75374285D01*
X124547380Y-75136190D01*
X124595000Y-74993333D01*
X124547380Y-74374285D02*
X124547380Y-74183809D01*
X124595000Y-74088571D01*
X124690238Y-73993333D01*
X124880714Y-73945714D01*
X125214047Y-73945714D01*
X125404523Y-73993333D01*
X125499761Y-74088571D01*
X125547380Y-74183809D01*
X125547380Y-74374285D01*
X125499761Y-74469523D01*
X125404523Y-74564761D01*
X125214047Y-74612380D01*
X124880714Y-74612380D01*
X124690238Y-74564761D01*
X124595000Y-74469523D01*
X124547380Y-74374285D01*
X125547380Y-72945714D02*
X125071190Y-73279047D01*
X125547380Y-73517142D02*
X124547380Y-73517142D01*
X124547380Y-73136190D01*
X124595000Y-73040952D01*
X124642619Y-72993333D01*
X124737857Y-72945714D01*
X124880714Y-72945714D01*
X124975952Y-72993333D01*
X125023571Y-73040952D01*
X125071190Y-73136190D01*
X125071190Y-73517142D01*
X125547380Y-71279047D02*
X125547380Y-71755238D01*
X124547380Y-71755238D01*
X125023571Y-70945714D02*
X125023571Y-70612380D01*
X125547380Y-70469523D02*
X125547380Y-70945714D01*
X124547380Y-70945714D01*
X124547380Y-70469523D01*
X125023571Y-69707619D02*
X125023571Y-70040952D01*
X125547380Y-70040952D02*
X124547380Y-70040952D01*
X124547380Y-69564761D01*
X124547380Y-69326666D02*
X124547380Y-68755238D01*
X125547380Y-69040952D02*
X124547380Y-69040952D01*
X78970238Y-74501904D02*
X78922619Y-74644761D01*
X78922619Y-74882857D01*
X78970238Y-74978095D01*
X79017857Y-75025714D01*
X79113095Y-75073333D01*
X79208333Y-75073333D01*
X79303571Y-75025714D01*
X79351190Y-74978095D01*
X79398809Y-74882857D01*
X79446428Y-74692380D01*
X79494047Y-74597142D01*
X79541666Y-74549523D01*
X79636904Y-74501904D01*
X79732142Y-74501904D01*
X79827380Y-74549523D01*
X79875000Y-74597142D01*
X79922619Y-74692380D01*
X79922619Y-74930476D01*
X79875000Y-75073333D01*
X79446428Y-75501904D02*
X79446428Y-75835238D01*
X78922619Y-75978095D02*
X78922619Y-75501904D01*
X79922619Y-75501904D01*
X79922619Y-75978095D01*
X78922619Y-76978095D02*
X79398809Y-76644761D01*
X78922619Y-76406666D02*
X79922619Y-76406666D01*
X79922619Y-76787619D01*
X79875000Y-76882857D01*
X79827380Y-76930476D01*
X79732142Y-76978095D01*
X79589285Y-76978095D01*
X79494047Y-76930476D01*
X79446428Y-76882857D01*
X79398809Y-76787619D01*
X79398809Y-76406666D01*
X79922619Y-77263809D02*
X78922619Y-77597142D01*
X79922619Y-77930476D01*
X79922619Y-78454285D02*
X79922619Y-78644761D01*
X79875000Y-78740000D01*
X79779761Y-78835238D01*
X79589285Y-78882857D01*
X79255952Y-78882857D01*
X79065476Y-78835238D01*
X78970238Y-78740000D01*
X78922619Y-78644761D01*
X78922619Y-78454285D01*
X78970238Y-78359047D01*
X79065476Y-78263809D01*
X79255952Y-78216190D01*
X79589285Y-78216190D01*
X79779761Y-78263809D01*
X79875000Y-78359047D01*
X79922619Y-78454285D01*
X78922619Y-80549523D02*
X78922619Y-80073333D01*
X79922619Y-80073333D01*
X79446428Y-80882857D02*
X79446428Y-81216190D01*
X78922619Y-81359047D02*
X78922619Y-80882857D01*
X79922619Y-80882857D01*
X79922619Y-81359047D01*
X79446428Y-82120952D02*
X79446428Y-81787619D01*
X78922619Y-81787619D02*
X79922619Y-81787619D01*
X79922619Y-82263809D01*
X79922619Y-82501904D02*
X79922619Y-83073333D01*
X78922619Y-82787619D02*
X79922619Y-82787619D01*
X114262857Y-49900535D02*
X114012857Y-49543392D01*
X113834285Y-49900535D02*
X113834285Y-49150535D01*
X114120000Y-49150535D01*
X114191428Y-49186250D01*
X114227142Y-49221964D01*
X114262857Y-49293392D01*
X114262857Y-49400535D01*
X114227142Y-49471964D01*
X114191428Y-49507678D01*
X114120000Y-49543392D01*
X113834285Y-49543392D01*
X114548571Y-49686250D02*
X114905714Y-49686250D01*
X114477142Y-49900535D02*
X114727142Y-49150535D01*
X114977142Y-49900535D01*
X115227142Y-49900535D02*
X115227142Y-49150535D01*
X115512857Y-49150535D01*
X115584285Y-49186250D01*
X115620000Y-49221964D01*
X115655714Y-49293392D01*
X115655714Y-49400535D01*
X115620000Y-49471964D01*
X115584285Y-49507678D01*
X115512857Y-49543392D01*
X115227142Y-49543392D01*
X115870000Y-49150535D02*
X116298571Y-49150535D01*
X116084285Y-49900535D02*
X116084285Y-49150535D01*
X116691428Y-49150535D02*
X116834285Y-49150535D01*
X116905714Y-49186250D01*
X116977142Y-49257678D01*
X117012857Y-49400535D01*
X117012857Y-49650535D01*
X116977142Y-49793392D01*
X116905714Y-49864821D01*
X116834285Y-49900535D01*
X116691428Y-49900535D01*
X116620000Y-49864821D01*
X116548571Y-49793392D01*
X116512857Y-49650535D01*
X116512857Y-49400535D01*
X116548571Y-49257678D01*
X116620000Y-49186250D01*
X116691428Y-49150535D01*
X117762857Y-49900535D02*
X117512857Y-49543392D01*
X117334285Y-49900535D02*
X117334285Y-49150535D01*
X117620000Y-49150535D01*
X117691428Y-49186250D01*
X117727142Y-49221964D01*
X117762857Y-49293392D01*
X117762857Y-49400535D01*
X117727142Y-49471964D01*
X117691428Y-49507678D01*
X117620000Y-49543392D01*
X117334285Y-49543392D01*
X119048571Y-49186250D02*
X118977142Y-49150535D01*
X118870000Y-49150535D01*
X118762857Y-49186250D01*
X118691428Y-49257678D01*
X118655714Y-49329107D01*
X118620000Y-49471964D01*
X118620000Y-49579107D01*
X118655714Y-49721964D01*
X118691428Y-49793392D01*
X118762857Y-49864821D01*
X118870000Y-49900535D01*
X118941428Y-49900535D01*
X119048571Y-49864821D01*
X119084285Y-49829107D01*
X119084285Y-49579107D01*
X118941428Y-49579107D01*
X119834285Y-49900535D02*
X119584285Y-49543392D01*
X119405714Y-49900535D02*
X119405714Y-49150535D01*
X119691428Y-49150535D01*
X119762857Y-49186250D01*
X119798571Y-49221964D01*
X119834285Y-49293392D01*
X119834285Y-49400535D01*
X119798571Y-49471964D01*
X119762857Y-49507678D01*
X119691428Y-49543392D01*
X119405714Y-49543392D01*
X120155714Y-49900535D02*
X120155714Y-49150535D01*
X120512857Y-49900535D02*
X120512857Y-49150535D01*
X120798571Y-49150535D01*
X120870000Y-49186250D01*
X120905714Y-49221964D01*
X120941428Y-49293392D01*
X120941428Y-49400535D01*
X120905714Y-49471964D01*
X120870000Y-49507678D01*
X120798571Y-49543392D01*
X120512857Y-49543392D01*
X121262857Y-49900535D02*
X121262857Y-49150535D01*
X121548571Y-49150535D01*
X121620000Y-49186250D01*
X121655714Y-49221964D01*
X121691428Y-49293392D01*
X121691428Y-49400535D01*
X121655714Y-49471964D01*
X121620000Y-49507678D01*
X121548571Y-49543392D01*
X121262857Y-49543392D01*
X122012857Y-49507678D02*
X122262857Y-49507678D01*
X122370000Y-49900535D02*
X122012857Y-49900535D01*
X122012857Y-49150535D01*
X122370000Y-49150535D01*
X123120000Y-49900535D02*
X122870000Y-49543392D01*
X122691428Y-49900535D02*
X122691428Y-49150535D01*
X122977142Y-49150535D01*
X123048571Y-49186250D01*
X123084285Y-49221964D01*
X123120000Y-49293392D01*
X123120000Y-49400535D01*
X123084285Y-49471964D01*
X123048571Y-49507678D01*
X122977142Y-49543392D01*
X122691428Y-49543392D01*
X113209285Y-51036607D02*
X113173571Y-51072321D01*
X113066428Y-51108035D01*
X112995000Y-51108035D01*
X112887857Y-51072321D01*
X112816428Y-51000892D01*
X112780714Y-50929464D01*
X112745000Y-50786607D01*
X112745000Y-50679464D01*
X112780714Y-50536607D01*
X112816428Y-50465178D01*
X112887857Y-50393750D01*
X112995000Y-50358035D01*
X113066428Y-50358035D01*
X113173571Y-50393750D01*
X113209285Y-50429464D01*
X113673571Y-50358035D02*
X113816428Y-50358035D01*
X113887857Y-50393750D01*
X113959285Y-50465178D01*
X113995000Y-50608035D01*
X113995000Y-50858035D01*
X113959285Y-51000892D01*
X113887857Y-51072321D01*
X113816428Y-51108035D01*
X113673571Y-51108035D01*
X113602142Y-51072321D01*
X113530714Y-51000892D01*
X113495000Y-50858035D01*
X113495000Y-50608035D01*
X113530714Y-50465178D01*
X113602142Y-50393750D01*
X113673571Y-50358035D01*
X114316428Y-51108035D02*
X114316428Y-50358035D01*
X114745000Y-51108035D01*
X114745000Y-50358035D01*
X114995000Y-50358035D02*
X115423571Y-50358035D01*
X115209285Y-51108035D02*
X115209285Y-50358035D01*
X116102142Y-51108035D02*
X115852142Y-50750892D01*
X115673571Y-51108035D02*
X115673571Y-50358035D01*
X115959285Y-50358035D01*
X116030714Y-50393750D01*
X116066428Y-50429464D01*
X116102142Y-50500892D01*
X116102142Y-50608035D01*
X116066428Y-50679464D01*
X116030714Y-50715178D01*
X115959285Y-50750892D01*
X115673571Y-50750892D01*
X116566428Y-50358035D02*
X116709285Y-50358035D01*
X116780714Y-50393750D01*
X116852142Y-50465178D01*
X116887857Y-50608035D01*
X116887857Y-50858035D01*
X116852142Y-51000892D01*
X116780714Y-51072321D01*
X116709285Y-51108035D01*
X116566428Y-51108035D01*
X116495000Y-51072321D01*
X116423571Y-51000892D01*
X116387857Y-50858035D01*
X116387857Y-50608035D01*
X116423571Y-50465178D01*
X116495000Y-50393750D01*
X116566428Y-50358035D01*
X117566428Y-51108035D02*
X117209285Y-51108035D01*
X117209285Y-50358035D01*
X118637857Y-50715178D02*
X118745000Y-50750892D01*
X118780714Y-50786607D01*
X118816428Y-50858035D01*
X118816428Y-50965178D01*
X118780714Y-51036607D01*
X118745000Y-51072321D01*
X118673571Y-51108035D01*
X118387857Y-51108035D01*
X118387857Y-50358035D01*
X118637857Y-50358035D01*
X118709285Y-50393750D01*
X118745000Y-50429464D01*
X118780714Y-50500892D01*
X118780714Y-50572321D01*
X118745000Y-50643750D01*
X118709285Y-50679464D01*
X118637857Y-50715178D01*
X118387857Y-50715178D01*
X119280714Y-50358035D02*
X119423571Y-50358035D01*
X119495000Y-50393750D01*
X119566428Y-50465178D01*
X119602142Y-50608035D01*
X119602142Y-50858035D01*
X119566428Y-51000892D01*
X119495000Y-51072321D01*
X119423571Y-51108035D01*
X119280714Y-51108035D01*
X119209285Y-51072321D01*
X119137857Y-51000892D01*
X119102142Y-50858035D01*
X119102142Y-50608035D01*
X119137857Y-50465178D01*
X119209285Y-50393750D01*
X119280714Y-50358035D01*
X119887857Y-50893750D02*
X120245000Y-50893750D01*
X119816428Y-51108035D02*
X120066428Y-50358035D01*
X120316428Y-51108035D01*
X120995000Y-51108035D02*
X120745000Y-50750892D01*
X120566428Y-51108035D02*
X120566428Y-50358035D01*
X120852142Y-50358035D01*
X120923571Y-50393750D01*
X120959285Y-50429464D01*
X120995000Y-50500892D01*
X120995000Y-50608035D01*
X120959285Y-50679464D01*
X120923571Y-50715178D01*
X120852142Y-50750892D01*
X120566428Y-50750892D01*
X121316428Y-51108035D02*
X121316428Y-50358035D01*
X121494999Y-50358035D01*
X121602142Y-50393750D01*
X121673571Y-50465178D01*
X121709285Y-50536607D01*
X121744999Y-50679464D01*
X121744999Y-50786607D01*
X121709285Y-50929464D01*
X121673571Y-51000892D01*
X121602142Y-51072321D01*
X121494999Y-51108035D01*
X121316428Y-51108035D01*
X122530714Y-50358035D02*
X122780714Y-51108035D01*
X123030714Y-50358035D01*
X123673571Y-51108035D02*
X123245000Y-51108035D01*
X123459285Y-51108035D02*
X123459285Y-50358035D01*
X123387857Y-50465178D01*
X123316428Y-50536607D01*
X123245000Y-50572321D01*
X123995000Y-51036607D02*
X124030714Y-51072321D01*
X123995000Y-51108035D01*
X123959285Y-51072321D01*
X123995000Y-51036607D01*
X123995000Y-51108035D01*
X124744999Y-51108035D02*
X124316428Y-51108035D01*
X124530714Y-51108035D02*
X124530714Y-50358035D01*
X124459285Y-50465178D01*
X124387857Y-50536607D01*
X124316428Y-50572321D01*
X88891904Y-47231428D02*
X88749047Y-47183809D01*
X88701428Y-47136190D01*
X88653809Y-47040952D01*
X88653809Y-46898095D01*
X88701428Y-46802857D01*
X88749047Y-46755238D01*
X88844285Y-46707619D01*
X89225238Y-46707619D01*
X89225238Y-47707619D01*
X88891904Y-47707619D01*
X88796666Y-47660000D01*
X88749047Y-47612380D01*
X88701428Y-47517142D01*
X88701428Y-47421904D01*
X88749047Y-47326666D01*
X88796666Y-47279047D01*
X88891904Y-47231428D01*
X89225238Y-47231428D01*
X88225238Y-47231428D02*
X87891904Y-47231428D01*
X87749047Y-46707619D02*
X88225238Y-46707619D01*
X88225238Y-47707619D01*
X87749047Y-47707619D01*
X86749047Y-46802857D02*
X86796666Y-46755238D01*
X86939523Y-46707619D01*
X87034761Y-46707619D01*
X87177619Y-46755238D01*
X87272857Y-46850476D01*
X87320476Y-46945714D01*
X87368095Y-47136190D01*
X87368095Y-47279047D01*
X87320476Y-47469523D01*
X87272857Y-47564761D01*
X87177619Y-47660000D01*
X87034761Y-47707619D01*
X86939523Y-47707619D01*
X86796666Y-47660000D01*
X86749047Y-47612380D01*
X89939523Y-45097619D02*
X89939523Y-46097619D01*
X89558571Y-46097619D01*
X89463333Y-46050000D01*
X89415714Y-46002380D01*
X89368095Y-45907142D01*
X89368095Y-45764285D01*
X89415714Y-45669047D01*
X89463333Y-45621428D01*
X89558571Y-45573809D01*
X89939523Y-45573809D01*
X88749047Y-46097619D02*
X88558571Y-46097619D01*
X88463333Y-46050000D01*
X88368095Y-45954761D01*
X88320476Y-45764285D01*
X88320476Y-45430952D01*
X88368095Y-45240476D01*
X88463333Y-45145238D01*
X88558571Y-45097619D01*
X88749047Y-45097619D01*
X88844285Y-45145238D01*
X88939523Y-45240476D01*
X88987142Y-45430952D01*
X88987142Y-45764285D01*
X88939523Y-45954761D01*
X88844285Y-46050000D01*
X88749047Y-46097619D01*
X87987142Y-46097619D02*
X87749047Y-45097619D01*
X87558571Y-45811904D01*
X87368095Y-45097619D01*
X87130000Y-46097619D01*
X86749047Y-45621428D02*
X86415714Y-45621428D01*
X86272857Y-45097619D02*
X86749047Y-45097619D01*
X86749047Y-46097619D01*
X86272857Y-46097619D01*
X85272857Y-45097619D02*
X85606190Y-45573809D01*
X85844285Y-45097619D02*
X85844285Y-46097619D01*
X85463333Y-46097619D01*
X85368095Y-46050000D01*
X85320476Y-46002380D01*
X85272857Y-45907142D01*
X85272857Y-45764285D01*
X85320476Y-45669047D01*
X85368095Y-45621428D01*
X85463333Y-45573809D01*
X85844285Y-45573809D01*
X125499761Y-66245714D02*
X125547380Y-66102857D01*
X125547380Y-65864761D01*
X125499761Y-65769523D01*
X125452142Y-65721904D01*
X125356904Y-65674285D01*
X125261666Y-65674285D01*
X125166428Y-65721904D01*
X125118809Y-65769523D01*
X125071190Y-65864761D01*
X125023571Y-66055238D01*
X124975952Y-66150476D01*
X124928333Y-66198095D01*
X124833095Y-66245714D01*
X124737857Y-66245714D01*
X124642619Y-66198095D01*
X124595000Y-66150476D01*
X124547380Y-66055238D01*
X124547380Y-65817142D01*
X124595000Y-65674285D01*
X125023571Y-65245714D02*
X125023571Y-64912380D01*
X125547380Y-64769523D02*
X125547380Y-65245714D01*
X124547380Y-65245714D01*
X124547380Y-64769523D01*
X125547380Y-64340952D02*
X124547380Y-64340952D01*
X125547380Y-63769523D01*
X124547380Y-63769523D01*
X125499761Y-63340952D02*
X125547380Y-63198095D01*
X125547380Y-62960000D01*
X125499761Y-62864761D01*
X125452142Y-62817142D01*
X125356904Y-62769523D01*
X125261666Y-62769523D01*
X125166428Y-62817142D01*
X125118809Y-62864761D01*
X125071190Y-62960000D01*
X125023571Y-63150476D01*
X124975952Y-63245714D01*
X124928333Y-63293333D01*
X124833095Y-63340952D01*
X124737857Y-63340952D01*
X124642619Y-63293333D01*
X124595000Y-63245714D01*
X124547380Y-63150476D01*
X124547380Y-62912380D01*
X124595000Y-62769523D01*
X124547380Y-62150476D02*
X124547380Y-61960000D01*
X124595000Y-61864761D01*
X124690238Y-61769523D01*
X124880714Y-61721904D01*
X125214047Y-61721904D01*
X125404523Y-61769523D01*
X125499761Y-61864761D01*
X125547380Y-61960000D01*
X125547380Y-62150476D01*
X125499761Y-62245714D01*
X125404523Y-62340952D01*
X125214047Y-62388571D01*
X124880714Y-62388571D01*
X124690238Y-62340952D01*
X124595000Y-62245714D01*
X124547380Y-62150476D01*
X125547380Y-60721904D02*
X125071190Y-61055238D01*
X125547380Y-61293333D02*
X124547380Y-61293333D01*
X124547380Y-60912380D01*
X124595000Y-60817142D01*
X124642619Y-60769523D01*
X124737857Y-60721904D01*
X124880714Y-60721904D01*
X124975952Y-60769523D01*
X125023571Y-60817142D01*
X125071190Y-60912380D01*
X125071190Y-61293333D01*
X125547380Y-58960000D02*
X125071190Y-59293333D01*
X125547380Y-59531428D02*
X124547380Y-59531428D01*
X124547380Y-59150476D01*
X124595000Y-59055238D01*
X124642619Y-59007619D01*
X124737857Y-58960000D01*
X124880714Y-58960000D01*
X124975952Y-59007619D01*
X125023571Y-59055238D01*
X125071190Y-59150476D01*
X125071190Y-59531428D01*
X125547380Y-58531428D02*
X124547380Y-58531428D01*
X124595000Y-57531428D02*
X124547380Y-57626666D01*
X124547380Y-57769523D01*
X124595000Y-57912380D01*
X124690238Y-58007619D01*
X124785476Y-58055238D01*
X124975952Y-58102857D01*
X125118809Y-58102857D01*
X125309285Y-58055238D01*
X125404523Y-58007619D01*
X125499761Y-57912380D01*
X125547380Y-57769523D01*
X125547380Y-57674285D01*
X125499761Y-57531428D01*
X125452142Y-57483809D01*
X125118809Y-57483809D01*
X125118809Y-57674285D01*
X125547380Y-57055238D02*
X124547380Y-57055238D01*
X125023571Y-57055238D02*
X125023571Y-56483809D01*
X125547380Y-56483809D02*
X124547380Y-56483809D01*
X124547380Y-56150476D02*
X124547380Y-55579047D01*
X125547380Y-55864761D02*
X124547380Y-55864761D01*
X78716238Y-62087714D02*
X78668619Y-62230571D01*
X78668619Y-62468666D01*
X78716238Y-62563904D01*
X78763857Y-62611523D01*
X78859095Y-62659142D01*
X78954333Y-62659142D01*
X79049571Y-62611523D01*
X79097190Y-62563904D01*
X79144809Y-62468666D01*
X79192428Y-62278190D01*
X79240047Y-62182952D01*
X79287666Y-62135333D01*
X79382904Y-62087714D01*
X79478142Y-62087714D01*
X79573380Y-62135333D01*
X79621000Y-62182952D01*
X79668619Y-62278190D01*
X79668619Y-62516285D01*
X79621000Y-62659142D01*
X79192428Y-63087714D02*
X79192428Y-63421047D01*
X78668619Y-63563904D02*
X78668619Y-63087714D01*
X79668619Y-63087714D01*
X79668619Y-63563904D01*
X78668619Y-64563904D02*
X79144809Y-64230571D01*
X78668619Y-63992476D02*
X79668619Y-63992476D01*
X79668619Y-64373428D01*
X79621000Y-64468666D01*
X79573380Y-64516285D01*
X79478142Y-64563904D01*
X79335285Y-64563904D01*
X79240047Y-64516285D01*
X79192428Y-64468666D01*
X79144809Y-64373428D01*
X79144809Y-63992476D01*
X79668619Y-64849619D02*
X78668619Y-65182952D01*
X79668619Y-65516285D01*
X79668619Y-66040095D02*
X79668619Y-66230571D01*
X79621000Y-66325809D01*
X79525761Y-66421047D01*
X79335285Y-66468666D01*
X79001952Y-66468666D01*
X78811476Y-66421047D01*
X78716238Y-66325809D01*
X78668619Y-66230571D01*
X78668619Y-66040095D01*
X78716238Y-65944857D01*
X78811476Y-65849619D01*
X79001952Y-65802000D01*
X79335285Y-65802000D01*
X79525761Y-65849619D01*
X79621000Y-65944857D01*
X79668619Y-66040095D01*
X78668619Y-68230571D02*
X79144809Y-67897238D01*
X78668619Y-67659142D02*
X79668619Y-67659142D01*
X79668619Y-68040095D01*
X79621000Y-68135333D01*
X79573380Y-68182952D01*
X79478142Y-68230571D01*
X79335285Y-68230571D01*
X79240047Y-68182952D01*
X79192428Y-68135333D01*
X79144809Y-68040095D01*
X79144809Y-67659142D01*
X78668619Y-68659142D02*
X79668619Y-68659142D01*
X79621000Y-69659142D02*
X79668619Y-69563904D01*
X79668619Y-69421047D01*
X79621000Y-69278190D01*
X79525761Y-69182952D01*
X79430523Y-69135333D01*
X79240047Y-69087714D01*
X79097190Y-69087714D01*
X78906714Y-69135333D01*
X78811476Y-69182952D01*
X78716238Y-69278190D01*
X78668619Y-69421047D01*
X78668619Y-69516285D01*
X78716238Y-69659142D01*
X78763857Y-69706761D01*
X79097190Y-69706761D01*
X79097190Y-69516285D01*
X78668619Y-70135333D02*
X79668619Y-70135333D01*
X79192428Y-70135333D02*
X79192428Y-70706761D01*
X78668619Y-70706761D02*
X79668619Y-70706761D01*
X79668619Y-71040095D02*
X79668619Y-71611523D01*
X78668619Y-71325809D02*
X79668619Y-71325809D01*
%TO.C,J6*%
X112061666Y-78827380D02*
X112061666Y-79541666D01*
X112014047Y-79684523D01*
X111918809Y-79779761D01*
X111775952Y-79827380D01*
X111680714Y-79827380D01*
X112966428Y-78827380D02*
X112775952Y-78827380D01*
X112680714Y-78875000D01*
X112633095Y-78922619D01*
X112537857Y-79065476D01*
X112490238Y-79255952D01*
X112490238Y-79636904D01*
X112537857Y-79732142D01*
X112585476Y-79779761D01*
X112680714Y-79827380D01*
X112871190Y-79827380D01*
X112966428Y-79779761D01*
X113014047Y-79732142D01*
X113061666Y-79636904D01*
X113061666Y-79398809D01*
X113014047Y-79303571D01*
X112966428Y-79255952D01*
X112871190Y-79208333D01*
X112680714Y-79208333D01*
X112585476Y-79255952D01*
X112537857Y-79303571D01*
X112490238Y-79398809D01*
%TO.C,H3*%
X81788095Y-47442380D02*
X81788095Y-46442380D01*
X81788095Y-46918571D02*
X82359523Y-46918571D01*
X82359523Y-47442380D02*
X82359523Y-46442380D01*
X82740476Y-46442380D02*
X83359523Y-46442380D01*
X83026190Y-46823333D01*
X83169047Y-46823333D01*
X83264285Y-46870952D01*
X83311904Y-46918571D01*
X83359523Y-47013809D01*
X83359523Y-47251904D01*
X83311904Y-47347142D01*
X83264285Y-47394761D01*
X83169047Y-47442380D01*
X82883333Y-47442380D01*
X82788095Y-47394761D01*
X82740476Y-47347142D01*
%TO.C,R4*%
X102052380Y-76366666D02*
X101576190Y-76700000D01*
X102052380Y-76938095D02*
X101052380Y-76938095D01*
X101052380Y-76557142D01*
X101100000Y-76461904D01*
X101147619Y-76414285D01*
X101242857Y-76366666D01*
X101385714Y-76366666D01*
X101480952Y-76414285D01*
X101528571Y-76461904D01*
X101576190Y-76557142D01*
X101576190Y-76938095D01*
X101385714Y-75509523D02*
X102052380Y-75509523D01*
X101004761Y-75747619D02*
X101719047Y-75985714D01*
X101719047Y-75366666D01*
%TO.C,H2*%
X119888095Y-44902380D02*
X119888095Y-43902380D01*
X119888095Y-44378571D02*
X120459523Y-44378571D01*
X120459523Y-44902380D02*
X120459523Y-43902380D01*
X120888095Y-43997619D02*
X120935714Y-43950000D01*
X121030952Y-43902380D01*
X121269047Y-43902380D01*
X121364285Y-43950000D01*
X121411904Y-43997619D01*
X121459523Y-44092857D01*
X121459523Y-44188095D01*
X121411904Y-44330952D01*
X120840476Y-44902380D01*
X121459523Y-44902380D01*
%TO.C,H1*%
X119888095Y-91892380D02*
X119888095Y-90892380D01*
X119888095Y-91368571D02*
X120459523Y-91368571D01*
X120459523Y-91892380D02*
X120459523Y-90892380D01*
X121459523Y-91892380D02*
X120888095Y-91892380D01*
X121173809Y-91892380D02*
X121173809Y-90892380D01*
X121078571Y-91035238D01*
X120983333Y-91130476D01*
X120888095Y-91178095D01*
%TO.C,J1*%
X89328666Y-52030380D02*
X89328666Y-52744666D01*
X89281047Y-52887523D01*
X89185809Y-52982761D01*
X89042952Y-53030380D01*
X88947714Y-53030380D01*
X90328666Y-53030380D02*
X89757238Y-53030380D01*
X90042952Y-53030380D02*
X90042952Y-52030380D01*
X89947714Y-52173238D01*
X89852476Y-52268476D01*
X89757238Y-52316095D01*
%TO.C,R2*%
X102052380Y-66206666D02*
X101576190Y-66540000D01*
X102052380Y-66778095D02*
X101052380Y-66778095D01*
X101052380Y-66397142D01*
X101100000Y-66301904D01*
X101147619Y-66254285D01*
X101242857Y-66206666D01*
X101385714Y-66206666D01*
X101480952Y-66254285D01*
X101528571Y-66301904D01*
X101576190Y-66397142D01*
X101576190Y-66778095D01*
X101147619Y-65825714D02*
X101100000Y-65778095D01*
X101052380Y-65682857D01*
X101052380Y-65444761D01*
X101100000Y-65349523D01*
X101147619Y-65301904D01*
X101242857Y-65254285D01*
X101338095Y-65254285D01*
X101480952Y-65301904D01*
X102052380Y-65873333D01*
X102052380Y-65254285D01*
%TO.C,J5*%
X88352380Y-79113333D02*
X89066666Y-79113333D01*
X89209523Y-79160952D01*
X89304761Y-79256190D01*
X89352380Y-79399047D01*
X89352380Y-79494285D01*
X88352380Y-78160952D02*
X88352380Y-78637142D01*
X88828571Y-78684761D01*
X88780952Y-78637142D01*
X88733333Y-78541904D01*
X88733333Y-78303809D01*
X88780952Y-78208571D01*
X88828571Y-78160952D01*
X88923809Y-78113333D01*
X89161904Y-78113333D01*
X89257142Y-78160952D01*
X89304761Y-78208571D01*
X89352380Y-78303809D01*
X89352380Y-78541904D01*
X89304761Y-78637142D01*
X89257142Y-78684761D01*
%TO.C,J3*%
X113752380Y-61253333D02*
X114466666Y-61253333D01*
X114609523Y-61300952D01*
X114704761Y-61396190D01*
X114752380Y-61539047D01*
X114752380Y-61634285D01*
X113752380Y-60872380D02*
X113752380Y-60253333D01*
X114133333Y-60586666D01*
X114133333Y-60443809D01*
X114180952Y-60348571D01*
X114228571Y-60300952D01*
X114323809Y-60253333D01*
X114561904Y-60253333D01*
X114657142Y-60300952D01*
X114704761Y-60348571D01*
X114752380Y-60443809D01*
X114752380Y-60729523D01*
X114704761Y-60824761D01*
X114657142Y-60872380D01*
%TO.C,A0*%
X100895714Y-48426666D02*
X101371904Y-48426666D01*
X100800476Y-48712380D02*
X101133809Y-47712380D01*
X101467142Y-48712380D01*
X101990952Y-47712380D02*
X102086190Y-47712380D01*
X102181428Y-47760000D01*
X102229047Y-47807619D01*
X102276666Y-47902857D01*
X102324285Y-48093333D01*
X102324285Y-48331428D01*
X102276666Y-48521904D01*
X102229047Y-48617142D01*
X102181428Y-48664761D01*
X102086190Y-48712380D01*
X101990952Y-48712380D01*
X101895714Y-48664761D01*
X101848095Y-48617142D01*
X101800476Y-48521904D01*
X101752857Y-48331428D01*
X101752857Y-48093333D01*
X101800476Y-47902857D01*
X101848095Y-47807619D01*
X101895714Y-47760000D01*
X101990952Y-47712380D01*
%TO.C,H0*%
X82423095Y-91257380D02*
X82423095Y-90257380D01*
X82423095Y-90733571D02*
X82994523Y-90733571D01*
X82994523Y-91257380D02*
X82994523Y-90257380D01*
X83661190Y-90257380D02*
X83756428Y-90257380D01*
X83851666Y-90305000D01*
X83899285Y-90352619D01*
X83946904Y-90447857D01*
X83994523Y-90638333D01*
X83994523Y-90876428D01*
X83946904Y-91066904D01*
X83899285Y-91162142D01*
X83851666Y-91209761D01*
X83756428Y-91257380D01*
X83661190Y-91257380D01*
X83565952Y-91209761D01*
X83518333Y-91162142D01*
X83470714Y-91066904D01*
X83423095Y-90876428D01*
X83423095Y-90638333D01*
X83470714Y-90447857D01*
X83518333Y-90352619D01*
X83565952Y-90305000D01*
X83661190Y-90257380D01*
%TO.C,R1*%
X102052380Y-61126666D02*
X101576190Y-61460000D01*
X102052380Y-61698095D02*
X101052380Y-61698095D01*
X101052380Y-61317142D01*
X101100000Y-61221904D01*
X101147619Y-61174285D01*
X101242857Y-61126666D01*
X101385714Y-61126666D01*
X101480952Y-61174285D01*
X101528571Y-61221904D01*
X101576190Y-61317142D01*
X101576190Y-61698095D01*
X102052380Y-60174285D02*
X102052380Y-60745714D01*
X102052380Y-60460000D02*
X101052380Y-60460000D01*
X101195238Y-60555238D01*
X101290476Y-60650476D01*
X101338095Y-60745714D01*
%TO.C,J2*%
X113752380Y-73953333D02*
X114466666Y-73953333D01*
X114609523Y-74000952D01*
X114704761Y-74096190D01*
X114752380Y-74239047D01*
X114752380Y-74334285D01*
X113847619Y-73524761D02*
X113800000Y-73477142D01*
X113752380Y-73381904D01*
X113752380Y-73143809D01*
X113800000Y-73048571D01*
X113847619Y-73000952D01*
X113942857Y-72953333D01*
X114038095Y-72953333D01*
X114180952Y-73000952D01*
X114752380Y-73572380D01*
X114752380Y-72953333D01*
%TO.C,J4*%
X88352380Y-67163333D02*
X89066666Y-67163333D01*
X89209523Y-67210952D01*
X89304761Y-67306190D01*
X89352380Y-67449047D01*
X89352380Y-67544285D01*
X88685714Y-66258571D02*
X89352380Y-66258571D01*
X88304761Y-66496666D02*
X89019047Y-66734761D01*
X89019047Y-66115714D01*
%TO.C,R3*%
X102052380Y-71286666D02*
X101576190Y-71620000D01*
X102052380Y-71858095D02*
X101052380Y-71858095D01*
X101052380Y-71477142D01*
X101100000Y-71381904D01*
X101147619Y-71334285D01*
X101242857Y-71286666D01*
X101385714Y-71286666D01*
X101480952Y-71334285D01*
X101528571Y-71381904D01*
X101576190Y-71477142D01*
X101576190Y-71858095D01*
X101052380Y-70953333D02*
X101052380Y-70334285D01*
X101433333Y-70667619D01*
X101433333Y-70524761D01*
X101480952Y-70429523D01*
X101528571Y-70381904D01*
X101623809Y-70334285D01*
X101861904Y-70334285D01*
X101957142Y-70381904D01*
X102004761Y-70429523D01*
X102052380Y-70524761D01*
X102052380Y-70810476D01*
X102004761Y-70905714D01*
X101957142Y-70953333D01*
D11*
%TO.C,J6*%
X124135000Y-87205000D02*
X124135000Y-85955000D01*
X123845000Y-80945000D02*
X113725000Y-80945000D01*
X120535000Y-86155000D02*
X117035000Y-86155000D01*
X123835000Y-86155000D02*
X122035000Y-86155000D01*
X113725000Y-80945000D02*
X113725000Y-86915000D01*
X120535000Y-86905000D02*
X120535000Y-86155000D01*
X122035000Y-86155000D02*
X122035000Y-86905000D01*
X115535000Y-86155000D02*
X113735000Y-86155000D01*
X123085000Y-84655000D02*
X123085000Y-81705000D01*
X123835000Y-84655000D02*
X123085000Y-84655000D01*
X123845000Y-86915000D02*
X123845000Y-80945000D01*
X117035000Y-86155000D02*
X117035000Y-86905000D01*
X123085000Y-81705000D02*
X118785000Y-81705000D01*
X123835000Y-86905000D02*
X123835000Y-86155000D01*
X113725000Y-86915000D02*
X123845000Y-86915000D01*
X122885000Y-87205000D02*
X124135000Y-87205000D01*
X113735000Y-86155000D02*
X113735000Y-86905000D01*
X117035000Y-86905000D02*
X120535000Y-86905000D01*
X114485000Y-84655000D02*
X114485000Y-81705000D01*
X113735000Y-84655000D02*
X114485000Y-84655000D01*
X115535000Y-86905000D02*
X115535000Y-86155000D01*
X122035000Y-86905000D02*
X123835000Y-86905000D01*
X113735000Y-86905000D02*
X115535000Y-86905000D01*
X114485000Y-81705000D02*
X118785000Y-81705000D01*
%TO.C,R4*%
X105367064Y-76935000D02*
X104912936Y-76935000D01*
X105367064Y-75465000D02*
X104912936Y-75465000D01*
%TO.C,J1*%
X80140000Y-49440000D02*
X80140000Y-50690000D01*
X86240000Y-50490000D02*
X88040000Y-50490000D01*
X88040000Y-51990000D02*
X87290000Y-51990000D01*
X83740000Y-49740000D02*
X83740000Y-50490000D01*
X88050000Y-55700000D02*
X88050000Y-49730000D01*
X82240000Y-49740000D02*
X80440000Y-49740000D01*
X82240000Y-50490000D02*
X82240000Y-49740000D01*
X80440000Y-49740000D02*
X80440000Y-50490000D01*
X88050000Y-49730000D02*
X80430000Y-49730000D01*
X80430000Y-55700000D02*
X88050000Y-55700000D01*
X87290000Y-51990000D02*
X87290000Y-54940000D01*
X81190000Y-54940000D02*
X84240000Y-54940000D01*
X84740000Y-49740000D02*
X83740000Y-49740000D01*
X83740000Y-50490000D02*
X84740000Y-50490000D01*
X80430000Y-49730000D02*
X80430000Y-55700000D01*
X87290000Y-54940000D02*
X84240000Y-54940000D01*
X80440000Y-50490000D02*
X82240000Y-50490000D01*
X86240000Y-49740000D02*
X86240000Y-50490000D01*
X81390000Y-49440000D02*
X80140000Y-49440000D01*
X84740000Y-50490000D02*
X84740000Y-49740000D01*
X81190000Y-51990000D02*
X81190000Y-54940000D01*
X88040000Y-50490000D02*
X88040000Y-49740000D01*
X80440000Y-51990000D02*
X81190000Y-51990000D01*
X88040000Y-49740000D02*
X86240000Y-49740000D01*
%TO.C,R2*%
X105367064Y-65305000D02*
X104912936Y-65305000D01*
X105367064Y-66775000D02*
X104912936Y-66775000D01*
%TO.C,J5*%
X81370000Y-77030000D02*
X81370000Y-80530000D01*
X83620000Y-74480000D02*
X86570000Y-74480000D01*
X82120000Y-73730000D02*
X81370000Y-73730000D01*
X81370000Y-73730000D02*
X81370000Y-75530000D01*
X87330000Y-73720000D02*
X81360000Y-73720000D01*
X81370000Y-75530000D02*
X82120000Y-75530000D01*
X81070000Y-84130000D02*
X82320000Y-84130000D01*
X81360000Y-73720000D02*
X81360000Y-83840000D01*
X82120000Y-77030000D02*
X81370000Y-77030000D01*
X81070000Y-82880000D02*
X81070000Y-84130000D01*
X82120000Y-75530000D02*
X82120000Y-73730000D01*
X81370000Y-82030000D02*
X81370000Y-83830000D01*
X83620000Y-83830000D02*
X83620000Y-83080000D01*
X81370000Y-83830000D02*
X82120000Y-83830000D01*
X82120000Y-83830000D02*
X82120000Y-82030000D01*
X82120000Y-80530000D02*
X82120000Y-77030000D01*
X87330000Y-83840000D02*
X87330000Y-73720000D01*
X81360000Y-83840000D02*
X87330000Y-83840000D01*
X83620000Y-73730000D02*
X83620000Y-74480000D01*
X81370000Y-80530000D02*
X82120000Y-80530000D01*
X83620000Y-83080000D02*
X86570000Y-83080000D01*
X86570000Y-83080000D02*
X86570000Y-78780000D01*
X82120000Y-82030000D02*
X81370000Y-82030000D01*
X86570000Y-74480000D02*
X86570000Y-78780000D01*
%TO.C,J3*%
X121080000Y-64170000D02*
X121080000Y-65970000D01*
X121830000Y-59170000D02*
X121080000Y-59170000D01*
X115870000Y-65980000D02*
X121840000Y-65980000D01*
X119580000Y-65970000D02*
X119580000Y-65220000D01*
X121830000Y-65970000D02*
X121830000Y-64170000D01*
X116630000Y-65220000D02*
X116630000Y-60920000D01*
X122130000Y-56820000D02*
X122130000Y-55570000D01*
X121830000Y-62670000D02*
X121830000Y-59170000D01*
X122130000Y-55570000D02*
X120880000Y-55570000D01*
X121080000Y-62670000D02*
X121830000Y-62670000D01*
X115870000Y-55860000D02*
X115870000Y-65980000D01*
X121080000Y-59170000D02*
X121080000Y-62670000D01*
X121830000Y-64170000D02*
X121080000Y-64170000D01*
X116630000Y-56620000D02*
X116630000Y-60920000D01*
X121840000Y-55860000D02*
X115870000Y-55860000D01*
X119580000Y-65220000D02*
X116630000Y-65220000D01*
X121080000Y-65970000D02*
X121830000Y-65970000D01*
X121840000Y-65980000D02*
X121840000Y-55860000D01*
X121830000Y-55870000D02*
X121080000Y-55870000D01*
X119580000Y-56620000D02*
X116630000Y-56620000D01*
X121080000Y-57670000D02*
X121830000Y-57670000D01*
X121080000Y-55870000D02*
X121080000Y-57670000D01*
X119580000Y-55870000D02*
X119580000Y-56620000D01*
X121830000Y-57670000D02*
X121830000Y-55870000D01*
%TO.C,A0*%
X95260000Y-52070000D02*
X95260000Y-87630000D01*
X92590000Y-46860000D02*
X92590000Y-49530000D01*
X107960000Y-49530000D02*
X107960000Y-87630000D01*
X95260000Y-52070000D02*
X92590000Y-52070000D01*
X92590000Y-52070000D02*
X92590000Y-90300000D01*
X107960000Y-49530000D02*
X110630000Y-49530000D01*
X110630000Y-46860000D02*
X92590000Y-46860000D01*
X110630000Y-90300000D02*
X110630000Y-46860000D01*
X95260000Y-87630000D02*
X92590000Y-87630000D01*
X107960000Y-87630000D02*
X110630000Y-87630000D01*
X92590000Y-90300000D02*
X110630000Y-90300000D01*
X95260000Y-52070000D02*
X95260000Y-49530000D01*
X95260000Y-49530000D02*
X92590000Y-49530000D01*
%TO.C,R1*%
X105367064Y-61695000D02*
X104912936Y-61695000D01*
X105367064Y-60225000D02*
X104912936Y-60225000D01*
%TO.C,J2*%
X121830000Y-78670000D02*
X121830000Y-76870000D01*
X121830000Y-76870000D02*
X121080000Y-76870000D01*
X115870000Y-68560000D02*
X115870000Y-78680000D01*
X122130000Y-68270000D02*
X120880000Y-68270000D01*
X119580000Y-68570000D02*
X119580000Y-69320000D01*
X115870000Y-78680000D02*
X121840000Y-78680000D01*
X121080000Y-71870000D02*
X121080000Y-75370000D01*
X119580000Y-77920000D02*
X116630000Y-77920000D01*
X121080000Y-78670000D02*
X121830000Y-78670000D01*
X121830000Y-70370000D02*
X121830000Y-68570000D01*
X121080000Y-76870000D02*
X121080000Y-78670000D01*
X121840000Y-68560000D02*
X115870000Y-68560000D01*
X121080000Y-68570000D02*
X121080000Y-70370000D01*
X116630000Y-69320000D02*
X116630000Y-73620000D01*
X119580000Y-78670000D02*
X119580000Y-77920000D01*
X122130000Y-69520000D02*
X122130000Y-68270000D01*
X121080000Y-70370000D02*
X121830000Y-70370000D01*
X121830000Y-75370000D02*
X121830000Y-71870000D01*
X121830000Y-71870000D02*
X121080000Y-71870000D01*
X121080000Y-75370000D02*
X121830000Y-75370000D01*
X121840000Y-78680000D02*
X121840000Y-68560000D01*
X116630000Y-77920000D02*
X116630000Y-73620000D01*
X119580000Y-69320000D02*
X116630000Y-69320000D01*
X121830000Y-68570000D02*
X121080000Y-68570000D01*
%TO.C,J4*%
X86570000Y-71130000D02*
X86570000Y-66830000D01*
X81070000Y-72180000D02*
X82320000Y-72180000D01*
X81370000Y-71880000D02*
X82120000Y-71880000D01*
X86570000Y-62530000D02*
X86570000Y-66830000D01*
X87330000Y-61770000D02*
X81360000Y-61770000D01*
X82120000Y-71880000D02*
X82120000Y-70080000D01*
X83620000Y-71880000D02*
X83620000Y-71130000D01*
X82120000Y-70080000D02*
X81370000Y-70080000D01*
X81370000Y-61780000D02*
X81370000Y-63580000D01*
X83620000Y-62530000D02*
X86570000Y-62530000D01*
X87330000Y-71890000D02*
X87330000Y-61770000D01*
X83620000Y-71130000D02*
X86570000Y-71130000D01*
X82120000Y-65080000D02*
X81370000Y-65080000D01*
X82120000Y-61780000D02*
X81370000Y-61780000D01*
X82120000Y-63580000D02*
X82120000Y-61780000D01*
X82120000Y-68580000D02*
X82120000Y-65080000D01*
X81370000Y-63580000D02*
X82120000Y-63580000D01*
X81360000Y-61770000D02*
X81360000Y-71890000D01*
X83620000Y-61780000D02*
X83620000Y-62530000D01*
X81370000Y-70080000D02*
X81370000Y-71880000D01*
X81360000Y-71890000D02*
X87330000Y-71890000D01*
X81370000Y-65080000D02*
X81370000Y-68580000D01*
X81070000Y-70930000D02*
X81070000Y-72180000D01*
X81370000Y-68580000D02*
X82120000Y-68580000D01*
%TO.C,R3*%
X105367064Y-71855000D02*
X104912936Y-71855000D01*
X105367064Y-70385000D02*
X104912936Y-70385000D01*
%TD*%
M02*
