%TF.GenerationSoftware,KiCad,Pcbnew,(6.0.4-0)*%
%TF.CreationDate,2022-05-05T15:57:16+02:00*%
%TF.ProjectId,Raptor_Gripper_Board,52617074-6f72-45f4-9772-69707065725f,rev?*%
%TF.SameCoordinates,Original*%
%TF.FileFunction,Soldermask,Bot*%
%TF.FilePolarity,Negative*%
%FSLAX46Y46*%
G04 Gerber Fmt 4.6, Leading zero omitted, Abs format (unit mm)*
G04 Created by KiCad (PCBNEW (6.0.4-0)) date 2022-05-05 15:57:16*
%MOMM*%
%LPD*%
G01*
G04 APERTURE LIST*
G04 Aperture macros list*
%AMRoundRect*
0 Rectangle with rounded corners*
0 $1 Rounding radius*
0 $2 $3 $4 $5 $6 $7 $8 $9 X,Y pos of 4 corners*
0 Add a 4 corners polygon primitive as box body*
4,1,4,$2,$3,$4,$5,$6,$7,$8,$9,$2,$3,0*
0 Add four circle primitives for the rounded corners*
1,1,$1+$1,$2,$3*
1,1,$1+$1,$4,$5*
1,1,$1+$1,$6,$7*
1,1,$1+$1,$8,$9*
0 Add four rect primitives between the rounded corners*
20,1,$1+$1,$2,$3,$4,$5,0*
20,1,$1+$1,$4,$5,$6,$7,0*
20,1,$1+$1,$6,$7,$8,$9,0*
20,1,$1+$1,$8,$9,$2,$3,0*%
G04 Aperture macros list end*
%ADD10O,1.700000X1.950000*%
%ADD11RoundRect,0.250000X0.600000X0.725000X-0.600000X0.725000X-0.600000X-0.725000X0.600000X-0.725000X0*%
%ADD12C,3.800000*%
%ADD13C,2.600000*%
%ADD14O,1.700000X2.000000*%
%ADD15RoundRect,0.250000X-0.600000X-0.750000X0.600000X-0.750000X0.600000X0.750000X-0.600000X0.750000X0*%
%ADD16O,1.950000X1.700000*%
%ADD17RoundRect,0.250000X0.725000X-0.600000X0.725000X0.600000X-0.725000X0.600000X-0.725000X-0.600000X0*%
%ADD18RoundRect,0.250000X-0.725000X0.600000X-0.725000X-0.600000X0.725000X-0.600000X0.725000X0.600000X0*%
%ADD19O,1.600000X1.600000*%
%ADD20R,1.600000X1.600000*%
G04 APERTURE END LIST*
D10*
%TO.C,J6*%
X116285000Y-84455000D03*
X118785000Y-84455000D03*
D11*
X121285000Y-84455000D03*
%TD*%
D12*
%TO.C,H3*%
X79375000Y-45720000D03*
D13*
X79375000Y-45720000D03*
%TD*%
D12*
%TO.C,H2*%
X124460000Y-45720000D03*
D13*
X124460000Y-45720000D03*
%TD*%
D12*
%TO.C,H1*%
X124460000Y-92075000D03*
D13*
X124460000Y-92075000D03*
%TD*%
D14*
%TO.C,J1*%
X85490000Y-52190000D03*
D15*
X82990000Y-52190000D03*
%TD*%
D16*
%TO.C,J5*%
X83820000Y-76280000D03*
X83820000Y-78780000D03*
D17*
X83820000Y-81280000D03*
%TD*%
D16*
%TO.C,J3*%
X119380000Y-63420000D03*
X119380000Y-60920000D03*
D18*
X119380000Y-58420000D03*
%TD*%
D19*
%TO.C,A0*%
X109230000Y-50800000D03*
X109230000Y-53340000D03*
X109230000Y-55880000D03*
X109230000Y-58420000D03*
X109230000Y-60960000D03*
X109230000Y-63500000D03*
X109230000Y-66040000D03*
X109230000Y-68580000D03*
X109230000Y-71120000D03*
X109230000Y-73660000D03*
X109230000Y-76200000D03*
X109230000Y-78740000D03*
X109230000Y-81280000D03*
X109230000Y-83820000D03*
X109230000Y-86360000D03*
X93990000Y-86360000D03*
X93990000Y-83820000D03*
X93990000Y-81280000D03*
X93990000Y-78740000D03*
X93990000Y-76200000D03*
X93990000Y-73660000D03*
X93990000Y-71120000D03*
X93990000Y-68580000D03*
X93990000Y-66040000D03*
X93990000Y-63500000D03*
X93990000Y-60960000D03*
X93990000Y-58420000D03*
X93990000Y-55880000D03*
X93990000Y-53340000D03*
D20*
X93990000Y-50800000D03*
%TD*%
D13*
%TO.C,H0*%
X79375000Y-92075000D03*
D12*
X79375000Y-92075000D03*
%TD*%
D16*
%TO.C,J2*%
X119380000Y-76120000D03*
X119380000Y-73620000D03*
D18*
X119380000Y-71120000D03*
%TD*%
D16*
%TO.C,J4*%
X83820000Y-64330000D03*
X83820000Y-66830000D03*
D17*
X83820000Y-69330000D03*
%TD*%
M02*
