M48
; DRILL file {KiCad (6.0.4-0)} date 2022 April 12, Tuesday 17:33:21
; FORMAT={-:-/ absolute / metric / decimal}
; #@! TF.CreationDate,2022-04-12T17:33:21+02:00
; #@! TF.GenerationSoftware,Kicad,Pcbnew,(6.0.4-0)
; #@! TF.FileFunction,Plated,1,2,PTH
FMAT,2
METRIC
; #@! TA.AperFunction,Plated,PTH,ComponentDrill
T1C0.950
; #@! TA.AperFunction,Plated,PTH,ComponentDrill
T2C1.000
; #@! TA.AperFunction,Plated,PTH,ComponentDrill
T3C2.200
%
G90
G05
T1
X83.82Y-64.33
X83.82Y-66.83
X83.82Y-69.33
X83.82Y-76.28
X83.82Y-78.78
X83.82Y-81.28
X119.38Y-58.42
X119.38Y-60.92
X119.38Y-63.42
X119.38Y-71.12
X119.38Y-73.62
X119.38Y-76.12
T2
X82.99Y-52.19
X85.49Y-52.19
X93.98Y-50.8
X93.98Y-53.34
X93.98Y-55.88
X93.98Y-58.42
X93.98Y-60.96
X93.98Y-63.5
X93.98Y-66.04
X93.98Y-68.58
X93.98Y-71.12
X93.98Y-73.66
X93.98Y-76.2
X93.98Y-78.74
X93.98Y-81.28
X93.98Y-83.82
X93.98Y-86.36
X109.22Y-50.8
X109.22Y-53.34
X109.22Y-55.88
X109.22Y-58.42
X109.22Y-60.96
X109.22Y-63.5
X109.22Y-66.04
X109.22Y-68.58
X109.22Y-71.12
X109.22Y-73.66
X109.22Y-76.2
X109.22Y-78.74
X109.22Y-81.28
X109.22Y-83.82
X109.22Y-86.36
T3
X79.375Y-45.72
X79.375Y-92.075
X124.46Y-45.72
X124.46Y-92.075
T0
M30
